<svg width="140" height="141" viewBox="0 0 140 141" fill="none" xmlns="http://www.w3.org/2000/svg">
<circle cx="70" cy="70.0059" r="70" fill="#F8F8F8" fill-opacity="0.9"/>
<path d="M37.392 95.3901C37.392 98.7383 45.0665 100.545 49.5654 100.545C56.2344 100.545 63.168 96.6656 63.168 89.2782C63.168 77.0544 44.1668 78.8614 44.1668 70.5704C44.1668 67.169 46.7602 64.618 50.3594 64.618C56.0227 64.618 59.5688 70.0921 59.5688 70.0921H59.9393C61.1567 68.8697 62.0035 67.1159 62.0035 65.7872C62.0035 62.811 54.329 61.748 51.4708 61.748C44.8019 61.748 38.2388 65.6278 38.2388 72.6432C38.2388 84.2824 57.24 83.1663 57.24 91.5635C57.24 94.4334 55.4934 97.1971 50.3064 97.1971C43.2141 97.1971 39.0327 92.2544 39.0327 92.2544H38.6622C38.1859 93.1048 37.392 94.4334 37.392 95.3901Z" fill="#1F135B"/>
<path d="M78.0867 94.1677C80.045 100.545 86.2905 100.545 86.2905 100.545C86.2905 100.545 86.9786 97.7286 87.8254 95.3369L91.9009 83.9635C92.2714 82.8474 92.4302 81.6782 92.4302 81.6782H92.6948C94.1239 86.6208 95.2883 90.9789 96.1881 94.1677C97.8818 100.28 104.392 100.545 104.392 100.545C104.392 100.545 105.08 97.7286 105.927 95.3369L115.083 69.8264C116.989 64.5117 119 62.9704 119 62.9704V62.7047C119 62.7047 118.259 62.1201 116.618 62.1201C111.908 62.1201 113.284 64.5117 103.439 93.5831H103.175C100.158 85.4516 96.0293 71.8991 94.7061 65.5746C94.2297 63.2893 92.1126 62.1201 90.2601 62.1201C86.9256 62.1201 86.3964 62.811 86.3964 62.811C86.3964 62.811 90.4718 71.9523 90.4718 76.1509C90.4718 79.074 87.5079 87.6306 85.3378 93.5831H85.0732C81.8445 85.4516 77.081 71.8991 75.5461 65.5746C75.0168 63.2893 72.9526 62.1201 71.1001 62.1201C67.501 62.1201 66.2837 62.811 66.2837 62.811C66.2837 62.811 67.2893 64.1928 68.8242 67.4879C71.5236 73.3341 76.0225 87.4712 78.0867 94.1677Z" fill="#1F135B"/>
<path d="M48.2579 62.8863L32.7295 61.1953L33.5838 65.6345L34.1797 68.7313C34.8502 72.2152 41.9595 73.7764 50.0582 72.2179C58.1565 70.6594 64.1798 66.571 63.5093 63.0871C63.5041 63.0597 63.4898 63.0339 63.4841 63.0072L62.0496 55.553L48.2579 62.8863Z" fill="#1F135B"/>
<path d="M21.8192 57.9162L27.417 58.7818L27.6794 57.74L29.5719 57.2062L29.9012 57.4389L28.3255 58.1481L28.2219 58.9066C28.2215 58.9067 25.9928 67.42 27.2744 71.1283C27.2744 71.1283 29.8692 72.0688 31.9286 70.2326L30.5403 59.6866L30.3733 58.8187L33.6862 57.371L33.5575 58.0204L31.1369 59.357L32.4133 59.5538L47.9416 61.2448L61.7333 53.9114L70.9629 48.4591L44.5719 43.7343L21.8192 57.9162Z" fill="#1F135B"/>
</svg>
