<svg width="573" height="87" viewBox="0 0 573 87" fill="none" xmlns="http://www.w3.org/2000/svg">
<path d="M42.2441 35.7018L19.0299 33.1738L20.307 39.8102L21.1979 44.4398C22.2002 49.6481 32.8283 51.9819 44.9355 49.652C57.042 47.3222 66.0465 41.2103 65.0442 36.002C65.0363 35.961 65.015 35.9224 65.0064 35.8825L62.8619 24.7388L42.2441 35.7018Z" fill="#1F135B"/>
<path d="M2.71961 28.2709L11.088 29.5649L11.4803 28.0076L14.3095 27.2095L14.8018 27.5573L12.4462 28.6176L12.2914 29.7515C12.2907 29.7517 8.95895 42.4786 10.8748 48.0223C10.8748 48.0223 14.7539 49.4282 17.8326 46.6833L15.7572 30.9176L15.5075 29.6201L20.4601 27.4558L20.2677 28.4266L16.6491 30.4248L18.5572 30.719L41.7714 33.2469L62.3891 22.284L76.1869 14.133L36.7338 7.06963L2.71961 28.2709Z" fill="#1F135B"/>
<path d="M28.4235 79.1659C28.4235 84.0277 39.6389 86.6797 46.2135 86.6797C55.9925 86.6797 66.103 81.0443 66.103 70.2708C66.103 52.4808 38.3682 55.1327 38.3682 43.0333C38.3682 38.1162 42.1251 34.4145 47.3737 34.4145C55.661 34.4145 60.8544 42.3703 60.8544 42.3703H61.4069C63.1748 40.6023 64.3903 38.0057 64.3903 36.072C64.3903 31.7626 53.1748 30.2156 49.0312 30.2156C39.2522 30.2156 29.6942 35.851 29.6942 46.0719C29.6942 63.0333 57.429 61.3758 57.429 73.5858C57.429 77.7847 54.8876 81.8178 47.3185 81.8178C36.9317 81.8178 30.8544 74.6355 30.8544 74.6355H30.3019C29.5837 75.851 28.4235 77.7847 28.4235 79.1659ZM76.6555 71.6521C76.6555 80.3261 79.2522 86.6797 88.313 86.6797C97.7605 86.6797 100.302 77.7847 100.302 77.7847L99.9152 77.4532C99.9152 77.4532 95.4953 81.0996 91.7384 81.0996C85.7715 81.0996 85.0533 74.6355 85.0533 66.9559C85.0533 61.0996 85.2743 51.9283 85.2743 51.9283C85.2743 51.9283 90.6887 52.094 91.5726 52.094C94.3351 52.094 95.882 51.4311 95.882 48.1714C95.882 47.7847 95.882 46.5139 95.8268 46.0719C95.8268 46.0719 94.8323 46.8454 91.6279 46.8454H85.2743L86.8213 38.3924L85.0533 37.7847C84.0588 40.3261 76.7108 46.8454 73.3958 46.8454V50.1051C76.3793 51.0443 76.9317 51.3206 76.9317 57.8952C76.9317 60.8233 76.6555 66.6244 76.6555 71.6521ZM105.937 74.3592C105.937 80.7128 107.981 86.6797 118.037 86.6797C127.429 86.6797 130.412 80.0498 130.412 80.0498L130.799 80.1051C130.799 80.1051 130.689 80.5471 130.689 80.8233C130.689 84.8012 133.948 86.2929 136.987 86.2929C143.617 86.2929 145.551 81.4863 145.551 81.4863L145.219 81.2653C145.219 81.2653 143.838 82.3703 142.291 82.3703C138.644 82.3703 138.423 77.3979 138.423 74.304C138.423 65.5747 139.031 58.3924 139.031 51.0996C139.031 47.9504 136.048 46.0719 132.401 46.0719C131.186 46.0719 129.915 46.4034 128.589 46.7902C128.589 46.7902 129.363 48.4476 129.915 53.7515C130.136 56.4587 130.302 60.7128 130.302 65.7405C130.302 72.3703 128.202 81.8178 120.965 81.8178C114.943 81.8178 114.446 76.2377 114.446 69.9946C114.446 62.2598 114.667 57.5084 114.667 51.0443C114.667 47.9504 111.573 46.0719 108.092 46.0719C106.877 46.0719 105.661 46.4587 104.335 46.7902C105.274 48.0609 105.661 51.0443 105.882 54.1935C106.103 57.8952 106.103 61.9283 106.103 63.8068C106.103 67.7294 105.937 71.1548 105.937 74.3592ZM149.749 68.8896C149.749 79.3869 155.44 86.6797 164.335 86.6797C173.23 86.6797 176.435 80.5471 176.435 80.5471L176.711 80.7128C176.821 85.0775 180.136 86.2929 183.285 86.2929C189.97 86.2929 191.904 81.4863 191.904 81.4863L191.573 81.2653C191.573 81.2653 190.191 82.3703 188.644 82.3703C185.937 82.3703 185.219 79.8841 185.164 77.2322C184.943 70.4366 184.777 63.42 184.777 56.5139C184.777 47.2322 185.164 39.8289 185.164 32.3703C185.164 27.5637 180.357 26.7349 175.164 26.6797L174.943 26.9559C174.943 26.9559 175.937 28.5029 176.324 35.63C176.49 38.6686 176.656 42.3703 176.656 46.4034C175.33 46.1272 173.948 46.0167 172.457 46.0167C157.208 46.0167 149.749 55.6852 149.749 68.8896ZM167.595 81.7073C160.468 81.7073 159.031 72.315 159.031 66.9559C159.031 58.2819 163.175 49.6079 171.407 49.6079C174.169 49.6079 176.711 49.9946 176.711 52.4255V59.6079C176.711 62.2598 176.545 66.5139 176.49 69.0554C176.324 74.3592 174.335 81.7073 167.595 81.7073ZM195.772 67.1769C195.772 78.5581 203.396 86.6797 213.783 86.6797C226.766 86.6797 229.418 76.8454 229.418 76.8454L229.031 76.4587C229.031 76.4587 223.23 80.8786 216.876 80.8786C208.921 80.8786 204.556 74.525 204.556 65.2432L204.888 65.0775C204.888 65.0775 208.921 67.2874 213.396 67.2874C220.191 67.2874 228.313 64.4697 228.313 56.7349C228.313 51.4863 224.28 45.6852 214.059 45.6852C202.788 45.6852 195.772 56.5139 195.772 67.1769ZM204.667 61.5416C204.667 58.6134 207.595 49.2211 213.064 49.2211C217.484 49.2211 219.086 53.0333 219.086 56.6797C219.086 61.4863 215.33 63.42 211.849 63.42C208.589 63.42 204.667 62.1493 204.667 61.5416ZM237.429 85.5195C239.307 85.9062 241.296 86.2929 242.954 86.2929C245.661 86.2929 247.816 85.188 247.816 81.0443C247.816 73.6963 247.484 68.4476 247.484 61.4863C247.484 54.1935 252.622 50.3813 256.766 50.3813C263.451 50.3813 263.562 55.5195 263.562 60.8233C263.562 68.7239 263.341 73.3648 263.341 80.0498C263.341 84.6907 266.932 86.2929 270.302 86.2929C276.987 86.2929 278.921 81.4863 278.921 81.4863L278.589 81.2653C278.589 81.2653 277.208 82.3703 275.661 82.3703C271.849 82.3703 271.794 77.7294 271.794 74.2487C271.794 67.5637 272.07 62.4808 272.07 56.8454C272.07 51.1548 271.02 45.6852 260.799 45.6852C255.219 45.6852 249.031 48.3371 247.263 52.315L246.932 52.2598C246.932 52.2598 247.263 51.3206 247.263 50.3261C247.263 47.9504 244.777 46.0719 241.241 46.0719C239.97 46.0719 238.755 46.4034 237.429 46.7902C237.429 46.7902 238.589 47.4532 238.976 54.967C239.142 58.6686 239.307 62.7018 239.307 66.5692C239.307 80.4366 237.981 85.2985 237.429 85.5195ZM285.993 71.6521C285.993 80.3261 288.644 86.6797 297.705 86.6797C307.153 86.6797 309.694 77.7847 309.694 77.7847L309.307 77.4532C309.307 77.4532 304.888 81.0996 301.075 81.0996C295.164 81.0996 294.446 74.6355 294.446 66.9559C294.446 61.0996 294.667 51.9283 294.667 51.9283C294.667 51.9283 300.081 52.094 300.965 52.094C303.727 52.094 305.274 51.4311 305.274 48.1714C305.274 47.7847 305.274 46.5139 305.219 46.0719C305.219 46.0719 304.169 46.8454 301.02 46.8454H294.667L296.214 38.3924L294.446 37.7847C293.451 40.3261 286.103 46.8454 282.788 46.8454V50.1051C285.772 51.0443 286.324 51.3206 286.324 57.8952C286.324 60.8233 285.993 66.6244 285.993 71.6521ZM326.49 77.3979C329.307 86.6797 338.479 86.6797 338.479 86.6797C338.479 86.6797 339.473 82.5913 340.689 79.1106L346.656 62.536C347.208 60.9338 347.429 59.2211 347.429 59.2211H347.816C349.915 66.4034 351.628 72.757 352.899 77.3979C355.385 86.2929 364.888 86.6797 364.888 86.6797C364.888 86.6797 365.937 82.5913 367.153 79.1106L380.523 41.9836C383.341 34.2487 386.269 31.9836 386.269 31.9836V31.5968C386.269 31.5968 385.164 30.7681 382.788 30.7681C375.882 30.7681 377.926 34.2488 363.506 76.5692H363.12C358.7 64.6907 352.678 44.967 350.744 35.7957C350.081 32.4808 346.987 30.7681 344.28 30.7681C339.363 30.7681 338.589 31.7626 338.589 31.7626C338.589 31.7626 344.556 45.0775 344.556 51.1548C344.556 55.409 340.247 67.8952 337.042 76.5692H336.656C331.959 64.6907 324.998 44.967 322.733 35.7957C321.959 32.4808 318.976 30.7681 316.269 30.7681C311.02 30.7681 309.197 31.7626 309.197 31.7626C309.197 31.7626 310.689 33.7515 312.954 38.5581C316.876 47.0664 323.451 67.6742 326.49 77.3979ZM387.042 67.1217C387.042 77.1769 393.672 86.6797 406.655 86.6797C419.97 86.6797 427.098 75.63 427.098 64.083C427.098 54.746 420.468 45.6852 407.429 45.6852C394.059 45.6852 387.042 56.072 387.042 67.1217ZM396.49 65.7957C396.49 57.5084 399.694 49.2211 406.6 49.2211C414.004 49.2211 417.65 57.3427 417.65 65.4642C417.65 74.304 414.335 83.1438 407.429 83.1438C400.081 83.1438 396.49 74.525 396.49 65.7957ZM436.6 80.3261C436.6 85.1327 438.644 86.2929 441.462 86.2929C443.12 86.2929 444.943 85.851 446.876 85.5195C446.766 85.4642 445.109 82.6465 445.109 67.3979C445.109 58.8344 446.821 52.5913 452.843 52.5913C454.611 52.5913 456.545 53.4753 459.031 54.746L459.418 54.5802C460.026 52.978 460.357 50.7681 460.357 49.1106C460.357 47.3979 459.584 46.0719 456.545 46.0719C452.401 46.0719 447.042 49.1106 444.888 53.9725L444.556 53.862C444.556 53.862 445.109 52.2045 445.109 51.0443C445.109 47.8399 442.401 46.0719 438.865 46.0719C437.595 46.0719 436.379 46.4034 435.053 46.7902C435.385 47.0664 436.987 51.1548 436.987 66.9007C436.987 71.1548 436.6 75.6852 436.6 80.3261ZM466.379 85.5195C468.258 85.851 470.247 86.2929 471.904 86.2929C474.611 86.2929 476.766 85.188 476.766 81.0443C476.766 75.9062 476.545 71.6521 476.435 65.7957L476.987 65.9615C479.363 66.6244 486.269 86.0719 497.098 86.0719C501.352 86.0719 503.23 85.2985 503.23 85.2985V84.9117C496.876 80.3261 486.987 67.0112 483.341 62.1493V61.8731C490.468 55.5195 498.589 50.6576 498.589 47.7847C498.589 46.7902 497.484 46.2377 494.832 46.2377C492.899 46.2377 490.689 46.8454 490.689 46.8454C490.191 49.8841 487.981 51.6521 477.76 61.8731L476.766 62.8675H476.379V56.5139C476.379 48.3371 476.655 40.2156 476.655 32.3703C476.655 27.5637 471.904 26.7349 466.711 26.6797L466.49 26.9559C466.49 26.9559 467.484 28.5029 467.871 35.63C468.147 42.3703 468.313 52.8123 468.313 62.536C468.313 70.0499 467.705 84.525 466.379 85.5195ZM505.937 67.1769C505.937 78.5581 513.562 86.6797 523.948 86.6797C536.932 86.6797 539.584 76.8454 539.584 76.8454L539.197 76.4587C539.197 76.4587 533.396 80.8786 527.042 80.8786C519.086 80.8786 514.722 74.525 514.722 65.2432L515.053 65.0775C515.053 65.0775 519.086 67.2874 523.562 67.2874C530.357 67.2874 538.479 64.4697 538.479 56.7349C538.479 51.4863 534.446 45.6852 524.225 45.6852C512.954 45.6852 505.937 56.5139 505.937 67.1769ZM514.832 61.5416C514.832 58.6134 517.76 49.2211 523.23 49.2211C527.65 49.2211 529.252 53.0333 529.252 56.6797C529.252 61.4863 525.495 63.42 522.015 63.42C518.755 63.42 514.832 62.1493 514.832 61.5416ZM548.921 80.3261C548.921 85.1327 550.91 86.2929 553.783 86.2929C555.44 86.2929 557.263 85.851 559.197 85.5195C559.031 85.4642 557.429 82.6465 557.429 67.3979C557.429 58.8344 559.142 52.5913 565.164 52.5913C566.932 52.5913 568.865 53.4753 571.352 54.746L571.738 54.5802C572.346 52.978 572.678 50.7681 572.678 49.1106C572.678 47.3979 571.904 46.0719 568.865 46.0719C564.722 46.0719 559.363 49.1106 557.208 53.9725L556.877 53.862C556.877 53.862 557.429 52.2045 557.429 51.0443C557.429 47.8399 554.722 46.0719 551.186 46.0719C549.915 46.0719 548.7 46.4034 547.374 46.7902C547.705 47.0664 549.307 51.1548 549.307 66.9007C549.307 71.1548 548.921 75.6852 548.921 80.3261Z" fill="#1F135B"/>
</svg>
